<mxfile host="65bd71144e">
    <diagram id="_lO6KKi8AbSgeLTudczY" name="Page-1">
        <mxGraphModel dx="2533" dy="2207" grid="0" gridSize="10" guides="1" tooltips="1" connect="1" arrows="1" fold="1" page="0" pageScale="1" pageWidth="850" pageHeight="1100" math="0" shadow="0">
            <root>
                <mxCell id="0"/>
                <mxCell id="1" parent="0"/>
                <mxCell id="257" value="" style="shape=table;startSize=0;container=1;collapsible=0;childLayout=tableLayout;strokeColor=#FFFFFF;fontSize=50;fontColor=#00FF00;fillColor=none;" parent="1" vertex="1">
                    <mxGeometry x="-197" y="-582" width="986" height="155" as="geometry"/>
                </mxCell>
                <mxCell id="258" value="" style="shape=tableRow;horizontal=0;startSize=0;swimlaneHead=0;swimlaneBody=0;top=0;left=0;bottom=0;right=0;collapsible=0;dropTarget=0;fillColor=none;points=[[0,0.5],[1,0.5]];portConstraint=eastwest;strokeColor=#FFFFFF;fontSize=50;fontColor=#00FF00;" parent="257" vertex="1">
                    <mxGeometry width="986" height="155" as="geometry"/>
                </mxCell>
                <mxCell id="259" value="A" style="shape=partialRectangle;html=1;whiteSpace=wrap;connectable=0;overflow=hidden;fillColor=none;top=0;left=0;bottom=0;right=0;pointerEvents=1;strokeColor=#FFFFFF;fontSize=50;fontColor=#00FF00;" parent="258" vertex="1">
                    <mxGeometry width="123" height="155" as="geometry">
                        <mxRectangle width="123" height="155" as="alternateBounds"/>
                    </mxGeometry>
                </mxCell>
                <mxCell id="260" value="B" style="shape=partialRectangle;html=1;whiteSpace=wrap;connectable=0;overflow=hidden;fillColor=none;top=0;left=0;bottom=0;right=0;pointerEvents=1;strokeColor=#FFFFFF;fontSize=50;fontColor=#00FF00;" parent="258" vertex="1">
                    <mxGeometry x="123" width="124" height="155" as="geometry">
                        <mxRectangle width="124" height="155" as="alternateBounds"/>
                    </mxGeometry>
                </mxCell>
                <mxCell id="261" value="E" style="shape=partialRectangle;html=1;whiteSpace=wrap;connectable=0;overflow=hidden;fillColor=none;top=0;left=0;bottom=0;right=0;pointerEvents=1;strokeColor=#FFFFFF;fontSize=50;fontColor=#00FF00;" parent="258" vertex="1">
                    <mxGeometry x="247" width="123" height="155" as="geometry">
                        <mxRectangle width="123" height="155" as="alternateBounds"/>
                    </mxGeometry>
                </mxCell>
                <mxCell id="262" value="R" style="shape=partialRectangle;html=1;whiteSpace=wrap;connectable=0;overflow=hidden;fillColor=none;top=0;left=0;bottom=0;right=0;pointerEvents=1;strokeColor=#FFFFFF;fontSize=50;fontColor=#00FF00;" parent="258" vertex="1">
                    <mxGeometry x="370" width="124" height="155" as="geometry">
                        <mxRectangle width="124" height="155" as="alternateBounds"/>
                    </mxGeometry>
                </mxCell>
                <mxCell id="263" value="R" style="shape=partialRectangle;html=1;whiteSpace=wrap;connectable=0;overflow=hidden;fillColor=none;top=0;left=0;bottom=0;right=0;pointerEvents=1;strokeColor=#FFFFFF;fontSize=50;fontColor=#00FF00;" parent="258" vertex="1">
                    <mxGeometry x="494" width="129" height="155" as="geometry">
                        <mxRectangle width="129" height="155" as="alternateBounds"/>
                    </mxGeometry>
                </mxCell>
                <mxCell id="264" value="A" style="shape=partialRectangle;html=1;whiteSpace=wrap;connectable=0;overflow=hidden;fillColor=none;top=0;left=0;bottom=0;right=0;pointerEvents=1;strokeColor=#FFFFFF;fontSize=50;fontColor=#00FF00;" parent="258" vertex="1">
                    <mxGeometry x="623" width="116" height="155" as="geometry">
                        <mxRectangle width="116" height="155" as="alternateBounds"/>
                    </mxGeometry>
                </mxCell>
                <mxCell id="265" value="N" style="shape=partialRectangle;html=1;whiteSpace=wrap;connectable=0;overflow=hidden;fillColor=none;top=0;left=0;bottom=0;right=0;pointerEvents=1;strokeColor=#FFFFFF;fontSize=50;fontColor=#00FF00;" parent="258" vertex="1">
                    <mxGeometry x="739" width="124" height="155" as="geometry">
                        <mxRectangle width="124" height="155" as="alternateBounds"/>
                    </mxGeometry>
                </mxCell>
                <mxCell id="266" value="T" style="shape=partialRectangle;html=1;whiteSpace=wrap;connectable=0;overflow=hidden;fillColor=none;top=0;left=0;bottom=0;right=0;pointerEvents=1;strokeColor=#FFFFFF;fontSize=50;fontColor=#00FF00;" parent="258" vertex="1">
                    <mxGeometry x="863" width="123" height="155" as="geometry">
                        <mxRectangle width="123" height="155" as="alternateBounds"/>
                    </mxGeometry>
                </mxCell>
                <mxCell id="267" value="E" style="shape=partialRectangle;html=1;whiteSpace=wrap;connectable=0;overflow=hidden;fillColor=none;top=0;left=0;bottom=0;right=0;pointerEvents=1;strokeColor=#FFFFFF;fontSize=50;fontColor=#00FF00;" parent="1" vertex="1">
                    <mxGeometry x="50" y="-395" width="123" height="155" as="geometry">
                        <mxRectangle width="123" height="155" as="alternateBounds"/>
                    </mxGeometry>
                </mxCell>
                <mxCell id="268" value="R" style="shape=partialRectangle;html=1;whiteSpace=wrap;connectable=0;overflow=hidden;fillColor=none;top=0;left=0;bottom=0;right=0;pointerEvents=1;strokeColor=#FFFFFF;fontSize=50;fontColor=#00FF00;" parent="1" vertex="1">
                    <mxGeometry x="173" y="-395" width="124" height="155" as="geometry">
                        <mxRectangle width="124" height="155" as="alternateBounds"/>
                    </mxGeometry>
                </mxCell>
                <mxCell id="269" value="R" style="shape=partialRectangle;html=1;whiteSpace=wrap;connectable=0;overflow=hidden;fillColor=none;top=0;left=0;bottom=0;right=0;pointerEvents=1;strokeColor=#FFFFFF;fontSize=50;fontColor=#00FF00;" parent="1" vertex="1">
                    <mxGeometry x="300" y="-399" width="129" height="155" as="geometry">
                        <mxRectangle width="129" height="155" as="alternateBounds"/>
                    </mxGeometry>
                </mxCell>
                <mxCell id="270" value="A" style="shape=partialRectangle;html=1;whiteSpace=wrap;connectable=0;overflow=hidden;fillColor=none;top=0;left=0;bottom=0;right=0;pointerEvents=1;strokeColor=#FFFFFF;fontSize=50;fontColor=#00FF00;" parent="1" vertex="1">
                    <mxGeometry x="426" y="-395" width="116" height="155" as="geometry">
                        <mxRectangle width="116" height="155" as="alternateBounds"/>
                    </mxGeometry>
                </mxCell>
                <mxCell id="271" value="N" style="shape=partialRectangle;html=1;whiteSpace=wrap;connectable=0;overflow=hidden;fillColor=none;top=0;left=0;bottom=0;right=0;pointerEvents=1;strokeColor=#FFFFFF;fontSize=50;fontColor=#00FF00;" parent="1" vertex="1">
                    <mxGeometry x="542" y="-395" width="124" height="155" as="geometry">
                        <mxRectangle width="124" height="155" as="alternateBounds"/>
                    </mxGeometry>
                </mxCell>
                <mxCell id="272" value="T" style="shape=partialRectangle;html=1;whiteSpace=wrap;connectable=0;overflow=hidden;fillColor=none;top=0;left=0;bottom=0;right=0;pointerEvents=1;strokeColor=#FFFFFF;fontSize=50;fontColor=#00FF00;" parent="1" vertex="1">
                    <mxGeometry x="666" y="-395" width="123" height="155" as="geometry">
                        <mxRectangle width="123" height="155" as="alternateBounds"/>
                    </mxGeometry>
                </mxCell>
                <mxCell id="273" value="" style="shape=table;startSize=0;container=1;collapsible=0;childLayout=tableLayout;strokeColor=#FFFFFF;fontSize=50;fontColor=#00FF00;fillColor=none;" parent="1" vertex="1">
                    <mxGeometry x="954" y="-569" width="233" height="333.81486002604163" as="geometry"/>
                </mxCell>
                <mxCell id="274" value="" style="shape=tableRow;horizontal=0;startSize=0;swimlaneHead=0;swimlaneBody=0;top=0;left=0;bottom=0;right=0;collapsible=0;dropTarget=0;fillColor=none;points=[[0,0.5],[1,0.5]];portConstraint=eastwest;strokeColor=#FFFFFF;fontSize=50;fontColor=#00FF00;" parent="273" vertex="1">
                    <mxGeometry width="233" height="57" as="geometry"/>
                </mxCell>
                <mxCell id="275" value="A" style="shape=partialRectangle;html=1;whiteSpace=wrap;connectable=0;overflow=hidden;fillColor=none;top=0;left=0;bottom=0;right=0;pointerEvents=1;strokeColor=#FFFFFF;fontSize=50;fontColor=#00FF00;" parent="274" vertex="1">
                    <mxGeometry width="117" height="57" as="geometry">
                        <mxRectangle width="117" height="57" as="alternateBounds"/>
                    </mxGeometry>
                </mxCell>
                <mxCell id="276" value="2" style="shape=partialRectangle;html=1;whiteSpace=wrap;connectable=0;overflow=hidden;fillColor=none;top=0;left=0;bottom=0;right=0;pointerEvents=1;strokeColor=#FFFFFF;fontSize=50;fontColor=#990000;" parent="274" vertex="1">
                    <mxGeometry x="117" width="116" height="57" as="geometry">
                        <mxRectangle width="116" height="57" as="alternateBounds"/>
                    </mxGeometry>
                </mxCell>
                <mxCell id="277" value="" style="shape=tableRow;horizontal=0;startSize=0;swimlaneHead=0;swimlaneBody=0;top=0;left=0;bottom=0;right=0;collapsible=0;dropTarget=0;fillColor=none;points=[[0,0.5],[1,0.5]];portConstraint=eastwest;strokeColor=#FFFFFF;fontSize=50;fontColor=#00FF00;" parent="273" vertex="1">
                    <mxGeometry y="57" width="233" height="56" as="geometry"/>
                </mxCell>
                <mxCell id="278" value="B" style="shape=partialRectangle;html=1;whiteSpace=wrap;connectable=0;overflow=hidden;fillColor=none;top=0;left=0;bottom=0;right=0;pointerEvents=1;strokeColor=#FFFFFF;fontSize=50;fontColor=#00FF00;" parent="277" vertex="1">
                    <mxGeometry width="117" height="56" as="geometry">
                        <mxRectangle width="117" height="56" as="alternateBounds"/>
                    </mxGeometry>
                </mxCell>
                <mxCell id="279" value="1" style="shape=partialRectangle;html=1;whiteSpace=wrap;connectable=0;overflow=hidden;fillColor=none;top=0;left=0;bottom=0;right=0;pointerEvents=1;strokeColor=#FFFFFF;fontSize=50;fontColor=#990000;" parent="277" vertex="1">
                    <mxGeometry x="117" width="116" height="56" as="geometry">
                        <mxRectangle width="116" height="56" as="alternateBounds"/>
                    </mxGeometry>
                </mxCell>
                <mxCell id="280" value="" style="shape=tableRow;horizontal=0;startSize=0;swimlaneHead=0;swimlaneBody=0;top=0;left=0;bottom=0;right=0;collapsible=0;dropTarget=0;fillColor=none;points=[[0,0.5],[1,0.5]];portConstraint=eastwest;strokeColor=#FFFFFF;fontSize=50;fontColor=#00FF00;" parent="273" vertex="1">
                    <mxGeometry y="113" width="233" height="55" as="geometry"/>
                </mxCell>
                <mxCell id="281" value="E" style="shape=partialRectangle;html=1;whiteSpace=wrap;connectable=0;overflow=hidden;fillColor=none;top=0;left=0;bottom=0;right=0;pointerEvents=1;strokeColor=#FFFFFF;fontSize=50;fontColor=#00FF00;" parent="280" vertex="1">
                    <mxGeometry width="117" height="55" as="geometry">
                        <mxRectangle width="117" height="55" as="alternateBounds"/>
                    </mxGeometry>
                </mxCell>
                <mxCell id="282" value="1" style="shape=partialRectangle;html=1;whiteSpace=wrap;connectable=0;overflow=hidden;fillColor=none;top=0;left=0;bottom=0;right=0;pointerEvents=1;strokeColor=#FFFFFF;fontSize=50;fontColor=#990000;" parent="280" vertex="1">
                    <mxGeometry x="117" width="116" height="55" as="geometry">
                        <mxRectangle width="116" height="55" as="alternateBounds"/>
                    </mxGeometry>
                </mxCell>
                <mxCell id="283" value="" style="shape=tableRow;horizontal=0;startSize=0;swimlaneHead=0;swimlaneBody=0;top=0;left=0;bottom=0;right=0;collapsible=0;dropTarget=0;fillColor=none;points=[[0,0.5],[1,0.5]];portConstraint=eastwest;strokeColor=#FFFFFF;fontSize=50;fontColor=#00FF00;" parent="273" vertex="1">
                    <mxGeometry y="168" width="233" height="55" as="geometry"/>
                </mxCell>
                <mxCell id="284" value="R" style="shape=partialRectangle;html=1;whiteSpace=wrap;connectable=0;overflow=hidden;fillColor=none;top=0;left=0;bottom=0;right=0;pointerEvents=1;strokeColor=#FFFFFF;fontSize=50;fontColor=#00FF00;" parent="283" vertex="1">
                    <mxGeometry width="117" height="55" as="geometry">
                        <mxRectangle width="117" height="55" as="alternateBounds"/>
                    </mxGeometry>
                </mxCell>
                <mxCell id="285" value="2" style="shape=partialRectangle;html=1;whiteSpace=wrap;connectable=0;overflow=hidden;fillColor=none;top=0;left=0;bottom=0;right=0;pointerEvents=1;strokeColor=#FFFFFF;fontSize=50;fontColor=#990000;" parent="283" vertex="1">
                    <mxGeometry x="117" width="116" height="55" as="geometry">
                        <mxRectangle width="116" height="55" as="alternateBounds"/>
                    </mxGeometry>
                </mxCell>
                <mxCell id="286" value="" style="shape=tableRow;horizontal=0;startSize=0;swimlaneHead=0;swimlaneBody=0;top=0;left=0;bottom=0;right=0;collapsible=0;dropTarget=0;fillColor=none;points=[[0,0.5],[1,0.5]];portConstraint=eastwest;strokeColor=#FFFFFF;fontSize=50;fontColor=#00FF00;" parent="273" vertex="1">
                    <mxGeometry y="223" width="233" height="55" as="geometry"/>
                </mxCell>
                <mxCell id="287" value="N" style="shape=partialRectangle;html=1;whiteSpace=wrap;connectable=0;overflow=hidden;fillColor=none;top=0;left=0;bottom=0;right=0;pointerEvents=1;strokeColor=#FFFFFF;fontSize=50;fontColor=#00FF00;" parent="286" vertex="1">
                    <mxGeometry width="117" height="55" as="geometry">
                        <mxRectangle width="117" height="55" as="alternateBounds"/>
                    </mxGeometry>
                </mxCell>
                <mxCell id="288" value="1" style="shape=partialRectangle;html=1;whiteSpace=wrap;connectable=0;overflow=hidden;fillColor=none;top=0;left=0;bottom=0;right=0;pointerEvents=1;strokeColor=#FFFFFF;fontSize=50;fontColor=#990000;" parent="286" vertex="1">
                    <mxGeometry x="117" width="116" height="55" as="geometry">
                        <mxRectangle width="116" height="55" as="alternateBounds"/>
                    </mxGeometry>
                </mxCell>
                <mxCell id="289" value="" style="shape=tableRow;horizontal=0;startSize=0;swimlaneHead=0;swimlaneBody=0;top=0;left=0;bottom=0;right=0;collapsible=0;dropTarget=0;fillColor=none;points=[[0,0.5],[1,0.5]];portConstraint=eastwest;strokeColor=#FFFFFF;fontSize=50;fontColor=#00FF00;" parent="273" vertex="1">
                    <mxGeometry y="278" width="233" height="56" as="geometry"/>
                </mxCell>
                <mxCell id="290" value="T" style="shape=partialRectangle;html=1;whiteSpace=wrap;connectable=0;overflow=hidden;fillColor=none;top=0;left=0;bottom=0;right=0;pointerEvents=1;strokeColor=#FFFFFF;fontSize=50;fontColor=#00FF00;" parent="289" vertex="1">
                    <mxGeometry width="117" height="56" as="geometry">
                        <mxRectangle width="117" height="56" as="alternateBounds"/>
                    </mxGeometry>
                </mxCell>
                <mxCell id="291" value="1" style="shape=partialRectangle;html=1;whiteSpace=wrap;connectable=0;overflow=hidden;fillColor=none;top=0;left=0;bottom=0;right=0;pointerEvents=1;strokeColor=#FFFFFF;fontSize=50;fontColor=#990000;" parent="289" vertex="1">
                    <mxGeometry x="117" width="116" height="56" as="geometry">
                        <mxRectangle width="116" height="56" as="alternateBounds"/>
                    </mxGeometry>
                </mxCell>
            </root>
        </mxGraphModel>
    </diagram>
</mxfile>